<svg xmlns="http://www.w3.org/2000/svg" xmlns:xlink="http://www.w3.org/1999/xlink" version="1.1" width="256" height="256" viewBox="0 0 256 256" xml:space="preserve">

<defs>
</defs>
<g style="stroke: none; stroke-width: 0; stroke-dasharray: none; stroke-linecap: butt; stroke-linejoin: miter; stroke-miterlimit: 10; fill: none; fill-rule: nonzero; opacity: 1;" transform="translate(1.4065934065934016 1.4065934065934016) scale(2.81 2.81)" >
	<path d="M 70.264 54.622 c -0.369 -0.198 -0.823 -0.148 -1.14 0.125 c -1.695 1.461 -3.918 1.016 -6.736 0.454 c -2.46 -0.492 -5.25 -1.048 -8.226 -0.263 c -3.644 1.251 -7.522 5.026 -7.698 11.872 c -0.41 0.361 -0.82 0.749 -1.231 1.15 V 37.706 c 0 -0.558 -0.453 -1.011 -1.011 -1.011 s -1.011 0.453 -1.011 1.011 v 18.482 c -0.345 -0.335 -0.689 -0.656 -1.034 -0.96 c -0.176 -6.444 -3.834 -10 -7.341 -11.201 c -2.746 -0.721 -5.371 -0.197 -7.687 0.266 c -2.629 0.524 -4.705 0.939 -6.274 -0.414 c -0.318 -0.274 -0.771 -0.323 -1.139 -0.125 c -0.369 0.198 -0.577 0.603 -0.524 1.019 c 0.809 6.335 2.06 12.285 8.435 15.482 c 1.322 0.586 2.699 0.875 4.109 0.875 c 3.076 0 6.301 -1.395 9.419 -4.081 c 0.673 0.615 1.348 1.294 2.036 2.043 v 29.896 c 0 0.559 0.453 1.011 1.011 1.011 s 1.011 -0.452 1.011 -1.011 V 70.871 c 0.754 -0.822 1.495 -1.565 2.232 -2.238 c 3.313 2.868 6.74 4.361 10.023 4.361 c 1.506 0 2.981 -0.311 4.4 -0.94 c 6.713 -3.367 8.04 -9.686 8.9 -16.413 C 70.841 55.225 70.632 54.82 70.264 54.622 z" style="stroke: none; stroke-width: 1; stroke-dasharray: none; stroke-linecap: butt; stroke-linejoin: miter; stroke-miterlimit: 10; fill: rgb(127,178,65); fill-rule: nonzero; opacity: 1;" transform=" matrix(1 0 0 1 0 0) " stroke-linecap="round" />
	<path d="M 49.787 0.411 c -0.167 -0.229 -0.425 -0.376 -0.708 -0.405 c -0.283 -0.03 -0.564 0.065 -0.773 0.257 L 44.211 4.01 l -4.094 -3.747 c -0.21 -0.192 -0.496 -0.289 -0.774 -0.257 c -0.283 0.028 -0.541 0.175 -0.708 0.405 c -2.363 3.229 -3.648 6.682 -3.82 10.263 c -0.006 0.137 0.015 0.273 0.063 0.401 c 2.606 6.9 5.434 10.32 8.646 10.457 c 0.066 0.002 0.131 0.004 0.197 0.004 c 3.247 0 6.451 -3.4 9.789 -10.383 c 0.071 -0.149 0.104 -0.314 0.097 -0.479 C 53.435 7.093 52.15 3.64 49.787 0.411 z" style="stroke: none; stroke-width: 1; stroke-dasharray: none; stroke-linecap: butt; stroke-linejoin: miter; stroke-miterlimit: 10; fill: rgb(225,75,75); fill-rule: nonzero; opacity: 1;" transform=" matrix(1 0 0 1 0 0) " stroke-linecap="round" />
	<path d="M 44.23 19.3 l 0.707 -0.707 L 31.499 5.154 c -0.391 -0.391 -1.023 -0.391 -1.414 0 c -7.789 7.789 -7.789 20.463 0 28.253 l 0.707 -0.707 l 12.731 -12.694 l 0.001 0.001 l 0.665 -0.665 L 44.23 19.3 L 44.23 19.3 z" style="stroke: none; stroke-width: 1; stroke-dasharray: none; stroke-linecap: butt; stroke-linejoin: miter; stroke-miterlimit: 10; fill: rgb(191,51,51); fill-rule: nonzero; opacity: 1;" transform=" matrix(1 0 0 1 0 0) " stroke-linecap="round" />
	<path d="M 58.376 5.154 c -0.391 -0.391 -1.023 -0.391 -1.414 0 L 30.123 31.993 c -0.187 0.187 -0.293 0.442 -0.293 0.707 s 0.105 0.52 0.293 0.707 c 3.894 3.894 9.011 5.842 14.126 5.842 s 10.232 -1.947 14.126 -5.842 c 3.773 -3.773 5.852 -8.79 5.852 -14.126 C 64.228 13.944 62.149 8.927 58.376 5.154 z" style="stroke: none; stroke-width: 1; stroke-dasharray: none; stroke-linecap: butt; stroke-linejoin: miter; stroke-miterlimit: 10; fill: rgb(208,63,62); fill-rule: nonzero; opacity: 1;" transform=" matrix(1 0 0 1 0 0) " stroke-linecap="round" />
</g>
</svg>