<svg xmlns="http://www.w3.org/2000/svg" xmlns:xlink="http://www.w3.org/1999/xlink" version="1.1" width="256" height="256" viewBox="0 0 256 256" xml:space="preserve">

<defs>
</defs>
<g style="stroke: none; stroke-width: 0; stroke-dasharray: none; stroke-linecap: butt; stroke-linejoin: miter; stroke-miterlimit: 10; fill: none; fill-rule: nonzero; opacity: 1;" transform="translate(1.4065934065934016 1.4065934065934016) scale(2.81 2.81)" >
	<path d="M 42.526 41.369 c -0.189 -0.252 -0.486 -0.401 -0.801 -0.401 h -1.076 c 0 -0.13 -0.025 -0.262 -0.079 -0.39 c -4.015 -9.493 -11.61 -15.795 -22.576 -18.733 c -0.4 -0.107 -0.821 0.042 -1.065 0.375 S 16.67 23 16.892 23.348 c 3.426 5.382 5.905 11.949 7.533 20.045 c -6.049 -5.438 -13.064 -7.891 -23.385 -8.306 c -0.415 -0.023 -0.812 0.234 -0.969 0.628 c -0.157 0.393 -0.049 0.843 0.269 1.123 c 6.811 5.979 10.043 14.108 10.809 27.183 c 0.001 0.018 0.011 0.032 0.013 0.049 c 0.01 0.092 0.033 0.182 0.069 0.269 c 0.01 0.024 0.016 0.049 0.027 0.072 c 0.005 0.01 0.006 0.02 0.011 0.03 c 0.048 0.089 0.111 0.166 0.182 0.234 c 0.017 0.017 0.037 0.029 0.056 0.044 c 0.068 0.057 0.141 0.104 0.222 0.142 c 0.029 0.013 0.056 0.026 0.086 0.037 c 0.105 0.037 0.214 0.064 0.329 0.064 c 0.001 0 0.002 0 0.002 0 c 0 0 0.001 0 0.001 0 c 0 0 0 0 0 0 h 23.068 c 0.443 0 0.833 -0.291 0.959 -0.716 l 6.509 -21.995 C 42.773 41.949 42.715 41.622 42.526 41.369 z" style="stroke: none; stroke-width: 1; stroke-dasharray: none; stroke-linecap: butt; stroke-linejoin: miter; stroke-miterlimit: 10; fill: rgb(113,156,64); fill-rule: nonzero; opacity: 1;" transform=" matrix(1 0 0 1 0 0) " stroke-linecap="round" />
	<path d="M 89.929 35.715 c -0.157 -0.393 -0.539 -0.637 -0.969 -0.628 c -10.32 0.415 -17.335 2.868 -23.385 8.306 c 1.628 -8.095 4.107 -14.662 7.533 -20.044 c 0.222 -0.348 0.206 -0.796 -0.037 -1.128 s -0.666 -0.481 -1.065 -0.375 c -9.956 2.667 -17.124 8.118 -21.367 16.203 l -4.67 -18.323 c -0.113 -0.443 -0.512 -0.753 -0.969 -0.753 s -0.856 0.31 -0.969 0.753 L 32.819 63.715 c -0.136 0.535 0.187 1.08 0.722 1.216 c 0.537 0.138 1.08 -0.187 1.216 -0.722 l 0.063 -0.247 h 17.527 l 0.017 0.13 c 0.064 0.498 0.489 0.87 0.991 0.87 h 8.972 c 0.325 0 0.601 -0.166 0.784 -0.407 l 14.714 0.407 c 0.009 0 0.019 0 0.028 0 c 0.133 0 0.26 -0.027 0.377 -0.075 c 0.045 -0.018 0.079 -0.053 0.121 -0.077 c 0.066 -0.039 0.136 -0.073 0.191 -0.126 c 0.039 -0.037 0.063 -0.087 0.096 -0.131 c 0.042 -0.056 0.091 -0.107 0.121 -0.172 c 0.025 -0.055 0.03 -0.118 0.045 -0.177 c 0.016 -0.061 0.043 -0.118 0.047 -0.183 c 0.766 -13.075 3.998 -21.204 10.81 -27.183 C 89.979 36.558 90.086 36.108 89.929 35.715 z" style="stroke: none; stroke-width: 1; stroke-dasharray: none; stroke-linecap: butt; stroke-linejoin: miter; stroke-miterlimit: 10; fill: rgb(127,178,65); fill-rule: nonzero; opacity: 1;" transform=" matrix(1 0 0 1 0 0) " stroke-linecap="round" />
	<path d="M 83.48 62.962 H 6.52 c -2.223 0 -4.032 1.809 -4.032 4.032 s 1.809 4.033 4.032 4.033 H 83.48 c 2.224 0 4.032 -1.81 4.032 -4.033 S 85.704 62.962 83.48 62.962 z" style="stroke: none; stroke-width: 1; stroke-dasharray: none; stroke-linecap: butt; stroke-linejoin: miter; stroke-miterlimit: 10; fill: rgb(160,126,99); fill-rule: nonzero; opacity: 1;" transform=" matrix(1 0 0 1 0 0) " stroke-linecap="round" />
</g>
</svg>